<svg xmlns="http://www.w3.org/2000/svg" viewBox="0 0 512 512" width="512" height="512">
  <!-- Top person (coral/salmon) -->
  <circle cx="256" cy="82" r="54" fill="none" stroke="#C97B6C" stroke-width="28" stroke-linecap="round" stroke-linejoin="round"/>
  <path d="M 144 228 Q 144 154 256 154 Q 368 154 368 228" fill="none" stroke="#C97B6C" stroke-width="28" stroke-linecap="round" stroke-linejoin="round"/>

  <!-- Vertical connector down from top person -->
  <line x1="256" y1="228" x2="256" y2="288" stroke="#3D5280" stroke-width="18" stroke-linecap="round"/>

  <!-- Horizontal bar -->
  <line x1="104" y1="288" x2="408" y2="288" stroke="#3D5280" stroke-width="18" stroke-linecap="round"/>

  <!-- Vertical drops to bottom three -->
  <line x1="104" y1="288" x2="104" y2="320" stroke="#3D5280" stroke-width="18" stroke-linecap="round"/>
  <line x1="256" y1="288" x2="256" y2="320" stroke="#3D5280" stroke-width="18" stroke-linecap="round"/>
  <line x1="408" y1="288" x2="408" y2="320" stroke="#3D5280" stroke-width="18" stroke-linecap="round"/>

  <!-- Bottom-left person (blue) -->
  <circle cx="104" cy="358" r="38" fill="none" stroke="#3D5280" stroke-width="22" stroke-linecap="round" stroke-linejoin="round"/>
  <path d="M 28 464 Q 28 408 104 408 Q 180 408 180 464" fill="none" stroke="#3D5280" stroke-width="22" stroke-linecap="round" stroke-linejoin="round"/>

  <!-- Bottom-center person (blue) -->
  <circle cx="256" cy="358" r="38" fill="none" stroke="#3D5280" stroke-width="22" stroke-linecap="round" stroke-linejoin="round"/>
  <path d="M 180 464 Q 180 408 256 408 Q 332 408 332 464" fill="none" stroke="#3D5280" stroke-width="22" stroke-linecap="round" stroke-linejoin="round"/>

  <!-- Bottom-right person (blue) -->
  <circle cx="408" cy="358" r="38" fill="none" stroke="#3D5280" stroke-width="22" stroke-linecap="round" stroke-linejoin="round"/>
  <path d="M 332 464 Q 332 408 408 408 Q 484 408 484 464" fill="none" stroke="#3D5280" stroke-width="22" stroke-linecap="round" stroke-linejoin="round"/>
</svg>
